<?xml version="1.0" encoding="UTF-8" standalone="no"?>
<svg
   viewBox="0 0 300 300.621"
   version="1.1"
   id="svg1"
   sodipodi:docname="appiconfg.svg"
   inkscape:version="1.3 (0e150ed6c4, 2023-07-21)"
   xmlns:inkscape="http://www.inkscape.org/namespaces/inkscape"
   xmlns:sodipodi="http://sodipodi.sourceforge.net/DTD/sodipodi-0.dtd"
   xmlns="http://www.w3.org/2000/svg"
   xmlns:svg="http://www.w3.org/2000/svg">
  <defs
     id="defs1" />
  <sodipodi:namedview
     id="namedview1"
     pagecolor="#ffffff"
     bordercolor="#000000"
     borderopacity="0.25"
     inkscape:showpageshadow="2"
     inkscape:pageopacity="0.0"
     inkscape:pagecheckerboard="0"
     inkscape:deskcolor="#d1d1d1"
     inkscape:zoom="1.37"
     inkscape:cx="150.36496"
     inkscape:cy="150.36496"
     inkscape:window-width="1719"
     inkscape:window-height="1340"
     inkscape:window-x="-8"
     inkscape:window-y="0"
     inkscape:window-maximized="0"
     inkscape:current-layer="svg1" />
  <path
     fill="white"
     d="M 150,156.37912 A 6.2591241,6.2591241 0 1 0 143.74088,150.12 6.2591241,6.2591241 0 0 0 150,156.37912 m -3.12956,56.33212 c -28.16606,0 -28.79197,-22.34557 -13.95785,-29.73134 a 21.030657,21.030657 0 0 0 10.13978,-15.46004 19.841423,19.841423 0 0 1 -7.69872,-5.6963 c -22.90839,12.51875 -47.944891,7.57454 -47.944891,-14.83312 0,-28.16606 22.407661,-28.79197 29.730841,-13.95835 a 21.531387,21.531387 0 0 0 15.64781,10.13978 20.279562,20.279562 0 0 1 5.6958,-7.69822 c -12.51825,-23.09667 -7.51095,-47.944891 14.89672,-47.944891 27.91569,0 28.60419,22.407661 13.77007,29.793431 a 21.656569,21.656569 0 0 0 -10.13978,15.33385 18.777372,18.777372 0 0 1 7.8239,5.7584 c 23.09617,-12.39257 47.75712,-7.51045 47.75712,14.83512 0,28.16606 -22.1573,28.85406 -29.54306,14.02044 a 21.218431,21.218431 0 0 0 -15.52263,-10.07769 18.214051,18.214051 0 0 1 -5.7584,7.63613 c 12.45566,22.8463 7.51095,47.8828 -14.77153,47.8828 z"
     id="path1"
     style="fill:#ffffff;stroke-width:0.50073" />
</svg>
